<svg width="20" height="20" viewBox="0 0 20 20" fill="none" xmlns="http://www.w3.org/2000/svg">
<circle cx="10" cy="10" r="10" fill="white"/>
<circle cx="10" cy="10" r="9" fill="black"/>
<path d="M10 5C12.7614 5 15 7.23858 15 10C15 10.2027 14.9878 10.4025 14.9642 10.5988C14.8462 11.5808 14.8549 12.6255 15.3936 13.4551C15.8257 14.1203 15.348 15 14.5547 15H10.4453C10.3476 15 10.2497 14.9929 10.152 14.9967C10.1015 14.9987 10.0509 15 10 15C7.23858 15 5 12.9167 5 10C5 7.23858 7.23858 5 10 5Z" fill="white"/>
<path d="M11.4763 9.54644C11.7526 9.78571 11.7526 10.2143 11.4763 10.4536L9.99279 11.7383C9.60421 12.0748 9 11.7988 9 11.2847V8.71526C9 8.20121 9.60421 7.92518 9.99279 8.26171L11.4763 9.54644Z" fill="black"/>
</svg>
