<svg width="20" height="16" viewBox="0 0 20 16" fill="none" xmlns="http://www.w3.org/2000/svg">
<mask id="mask0_157_28" style="mask-type:alpha" maskUnits="userSpaceOnUse" x="0" y="0" width="20" height="16">
<path d="M0.0096527 0.000876177C-0.00551842 0.00510797 -0.00301784 0.0159957 0.0186554 0.043009C0.0403283 0.0702236 0.157695 0.22928 0.23622 0.33814C0.260894 0.372007 0.288903 0.410308 0.29857 0.423612C0.308406 0.436917 0.336915 0.477841 0.362256 0.514327C0.38743 0.551017 0.419774 0.596579 0.433611 0.615524C0.447615 0.634474 0.484126 0.686484 0.515469 0.73164C0.546478 0.776393 0.58332 0.828806 0.597328 0.847756C0.611165 0.866706 0.641675 0.910046 0.665516 0.94452C0.689023 0.97879 0.721033 1.02395 0.736705 1.04552C0.752043 1.06668 0.772548 1.09591 0.781885 1.11002C0.791387 1.12414 0.813227 1.15518 0.829898 1.17836C0.891749 1.26444 0.914924 1.2971 0.958268 1.35979C0.982776 1.39467 1.01478 1.43983 1.02946 1.46018C1.05613 1.49667 1.19334 1.69141 1.23351 1.75048C1.24535 1.76721 1.27736 1.81276 1.30504 1.85187C1.33238 1.89098 1.37255 1.94783 1.39389 1.97867C1.43457 2.03713 1.45058 2.06011 1.49676 2.12462C1.53227 2.17361 1.6433 2.31553 1.6553 2.32702C1.6603 2.33186 1.67498 2.34899 1.68731 2.36532C1.73899 2.43124 1.89004 2.56792 2.0004 2.64755C2.09993 2.71932 2.26098 2.80882 2.36851 2.85096C2.43352 2.87716 2.61058 2.92454 2.69927 2.93945C2.8113 2.95881 2.71594 2.9584 5.41822 2.95961C7.13571 2.96102 8.00914 2.96264 8.03731 2.96566C8.14584 2.97695 8.21719 3.01041 8.27521 3.07714C8.3449 3.15717 8.38507 3.24567 8.40475 3.3636C8.41042 3.39828 8.41108 3.42771 8.41075 3.6668V3.93128L8.39941 4.00002C8.38974 4.0599 8.38591 4.07481 8.36907 4.11614C8.33039 4.2117 8.27088 4.28689 8.20086 4.33023C8.18418 4.34071 8.11016 4.36692 8.08499 4.37155C8.07065 4.37417 7.13572 4.37679 5.58545 4.37841C3.92545 4.38063 3.10674 4.38324 3.10388 4.38587C3.09188 4.39776 3.10104 4.4155 3.1644 4.50238C3.17607 4.51831 3.19391 4.54371 3.20391 4.55863C3.21391 4.57375 3.24375 4.61588 3.27043 4.65196C3.29677 4.68845 3.33228 4.73845 3.34929 4.76344C3.36646 4.78824 3.3963 4.83098 3.41581 4.85799C3.43548 4.885 3.46132 4.92169 3.47382 4.93923C3.48599 4.95697 3.51267 4.99467 3.53251 5.02309C3.55285 5.05192 3.58986 5.10393 3.61437 5.13961C3.63921 5.17489 3.68372 5.23778 3.71289 5.27951C3.7424 5.32064 3.77325 5.36539 3.78225 5.37829C3.79075 5.39119 3.81742 5.42909 3.84126 5.46215C3.86477 5.49542 3.89528 5.53876 3.90878 5.55892C3.92229 5.57928 3.95263 5.62262 3.97597 5.65528C3.99948 5.68834 4.02898 5.73007 4.04182 5.74821C4.05466 5.76636 4.08167 5.80506 4.10234 5.83429C4.12285 5.86352 4.15002 5.90183 4.16236 5.91977C4.17486 5.93791 4.21004 5.9877 4.24071 6.03125C4.27122 6.07459 4.31606 6.13869 4.34057 6.17397C4.36508 6.20885 4.40359 6.26348 4.42593 6.29472C4.44877 6.32657 4.47711 6.3671 4.48928 6.38463C4.50129 6.40237 4.52546 6.43664 4.54263 6.46084C4.55964 6.48483 4.59815 6.54047 4.62832 6.5834C4.6585 6.62675 4.69367 6.67674 4.70684 6.69428C4.71968 6.71202 4.74385 6.74588 4.76019 6.76967C4.95375 7.04706 5.12046 7.22365 5.32569 7.36821C5.39304 7.41558 5.41471 7.42889 5.49541 7.47243C5.6011 7.52867 5.7148 7.57605 5.82267 7.6079C5.89986 7.63068 5.96021 7.64177 6.09575 7.6581C6.14409 7.66414 6.6239 7.66797 7.50065 7.66979C8.09099 7.67059 8.07849 7.6702 8.13802 7.69418C8.18521 7.71353 8.24572 7.75486 8.2834 7.79357C8.33708 7.8486 8.37942 7.94617 8.39826 8.05987C8.41493 8.15905 8.41427 7.99274 8.41327 12.099C8.41293 14.2354 8.41327 15.9877 8.4146 15.9923C8.4186 16.0064 8.42677 16.0021 8.45344 15.9717C8.50896 15.9072 8.60466 15.8048 8.73336 15.6719C8.7532 15.6512 8.77037 15.6332 8.88057 15.5175C8.90791 15.4891 8.93992 15.4546 8.95176 15.4413C8.96343 15.4284 8.9876 15.403 9.0051 15.3859C9.02278 15.3683 9.05162 15.3385 9.06946 15.3191C9.12881 15.256 9.15014 15.2337 9.20416 15.1772C9.23367 15.1464 9.27718 15.1012 9.30019 15.0762C9.32336 15.0512 9.35754 15.0155 9.37638 14.9966C9.39555 14.9777 9.42539 14.9468 9.44323 14.9279C9.50791 14.8587 9.54993 14.8144 9.58127 14.7829C9.59894 14.7654 9.62462 14.7386 9.63812 14.7232C9.65196 14.7081 9.68963 14.6686 9.72164 14.6354C9.75365 14.6023 9.79433 14.5598 9.812 14.5408C9.82984 14.5219 9.87069 14.4793 9.9027 14.4463C9.93504 14.413 9.98055 14.3658 10.0041 14.3408C10.0781 14.2622 10.1104 14.2281 10.1571 14.1796C10.1819 14.1534 10.2158 14.1181 10.2313 14.1013C10.2473 14.084 10.279 14.0513 10.3015 14.0282C10.3238 14.005 10.368 13.959 10.3988 13.9258C10.4298 13.8927 10.4725 13.8483 10.4932 13.8274C10.5312 13.7887 10.5806 13.7367 10.6407 13.6718C10.6586 13.6524 10.6844 13.6252 10.6988 13.6115C10.7126 13.5972 10.7468 13.5621 10.7744 13.5323C10.8018 13.5026 10.8435 13.4593 10.8666 13.4355C10.9206 13.38 10.9775 13.3204 11.018 13.276C11.0359 13.2567 11.0607 13.2305 11.0735 13.218C11.0867 13.2051 11.1099 13.1809 11.1255 13.1645C11.1849 13.101 11.2593 13.023 11.2863 12.9956C11.3016 12.9797 11.3364 12.9436 11.3634 12.9152C11.3901 12.8868 11.4321 12.8434 11.4558 12.8184C11.4797 12.7934 11.5157 12.7557 11.5355 12.7346C11.5555 12.713 11.5914 12.6757 11.6155 12.6507C11.6394 12.6257 11.6804 12.5828 11.7065 12.5551C11.7532 12.5062 11.7742 12.4842 11.8681 12.3866C11.8933 12.3604 11.9239 12.3282 11.9356 12.3148C11.9475 12.3015 11.9811 12.2659 12.0106 12.2352C12.0403 12.2048 12.0865 12.1566 12.1135 12.1282C12.3166 11.9145 12.4528 11.797 12.6398 11.6758C12.8535 11.5369 13.1356 11.4258 13.369 11.3885C13.5696 11.3563 13.5241 11.3579 14.4093 11.3545C14.6994 11.3537 14.8845 11.351 14.909 11.3484C14.9307 11.3458 14.9773 11.3416 15.0128 11.3389C15.1566 11.3291 15.2764 11.2998 15.4406 11.2349C15.6232 11.1628 15.8344 11.0311 15.9524 10.9154C15.9979 10.8715 16.0826 10.7818 16.1271 10.731C16.189 10.66 16.6676 10.082 16.6676 10.078C16.6676 10.0764 16.6691 10.0746 16.6713 10.0746C16.6758 10.0746 18.4545 7.92484 18.4598 7.91194C18.463 7.90508 18.4635 7.90065 18.461 7.89763C18.4585 7.8946 17.6884 7.89299 16.0606 7.89299C13.232 7.89257 12.7128 7.89077 12.6168 7.88008C12.5396 7.87142 12.5023 7.86416 12.4449 7.84662C12.339 7.81477 12.2192 7.74844 12.1135 7.66378C12.0608 7.62205 12.0225 7.58374 11.9713 7.52306C11.9478 7.49565 11.9274 7.47287 11.9261 7.47287C11.9243 7.47287 11.9233 7.47025 11.9233 7.46722C11.9233 7.4642 11.9158 7.45311 11.9069 7.44263C11.8634 7.39102 11.7856 7.25172 11.745 7.15234C11.719 7.08884 11.6799 6.96829 11.6654 6.90761C11.6575 6.87374 11.6402 6.75803 11.6323 6.68787C11.6265 6.63627 11.6262 6.54253 11.6262 5.46019C11.6262 4.22544 11.6262 4.21114 11.6422 4.05993C11.655 3.93777 11.6764 3.85088 11.7272 3.71239C11.7756 3.58075 11.8176 3.50213 11.9023 3.3846C11.9438 3.32694 11.9513 3.31807 12.0058 3.26163C12.0645 3.20014 12.101 3.16789 12.1502 3.13221C12.3005 3.02254 12.4588 2.95884 12.6241 2.94029C12.6523 2.93687 13.1883 2.93525 14.3384 2.93485C16.2263 2.93344 16.9042 2.93102 16.9789 2.92356C17.1408 2.90723 17.267 2.878 17.4018 2.82519C17.6187 2.73992 17.8388 2.59497 18.0013 2.43068C18.0757 2.35548 18.3411 2.04927 18.3571 2.02044C18.3599 2.0154 18.3638 2.01096 18.3663 2.01096C18.3706 2.01096 18.4033 1.96883 18.4033 1.96339C18.4033 1.96157 18.4058 1.95936 18.4086 1.95855C18.4143 1.95735 18.9866 1.26748 18.9866 1.26186C18.9866 1.25964 18.9886 1.25843 18.9911 1.25843C18.9936 1.25843 19.0997 1.13284 19.2267 0.978821C19.3536 0.825414 19.4589 0.699013 19.4603 0.698409C19.4618 0.697604 19.5706 0.567373 19.7022 0.408722C19.8337 0.250272 19.9539 0.108353 19.9689 0.0938355C19.9946 0.0688385 20.0041 0.053316 19.9984 0.0464621C19.9931 0.0400111 19.8164 0.0383985 18.9048 0.0373901C18.3794 0.0369772 17.9036 0.0357796 17.8466 0.0349694C17.7901 0.0335605 17.1499 0.0319453 16.424 0.0305364C13.5655 0.0259021 12.6846 0.0240857 12.3927 0.02207C12.2255 0.0206611 11.4428 0.0190458 10.6535 0.0176369C9.86432 0.0164293 8.33671 0.0134052 7.25873 0.011186C6.18108 0.0091682 4.58693 0.00614402 3.71637 0.00473514C2.8461 0.00352753 1.65744 0.00171078 1.0756 0.000905707C0.493758 -0.000301902 0.0139603 -0.000301902 0.00960703 0.000905707L0.0096527 0.000876177Z" fill="white"/>
</mask>
<g mask="url(#mask0_157_28)">
<path d="M1.44446 -1.6665C0.796157 -1.6665 0.174403 -1.38555 -0.28402 -0.885455C-0.742442 -0.385359 -0.999981 0.292919 -0.999981 1.00016L-0.999981 13.0002C-0.999981 13.7074 -0.742442 14.3857 -0.28402 14.8858C0.174403 15.3859 0.796157 15.6668 1.44446 15.6668H5.11113V-1.6665H1.44446ZM18.5556 -1.6665H14.8889V15.6668H18.5556C19.2039 15.6668 19.8256 15.3859 20.2841 14.8858C20.7425 14.3857 21 13.7074 21 13.0002V1.00016C21 0.292919 20.7425 -0.385359 20.2841 -0.885455C19.8256 -1.38555 19.2039 -1.6665 18.5556 -1.6665Z" fill="#D52B1E"/>
<path d="M5.11111 -1.6665H14.8889V15.6668H5.11111V-1.6665Z" fill="#EEEEEE"/>
<path d="M10.3758 9.7422C11.1079 9.83487 11.7643 9.9182 12.4958 10.0095L12.3094 9.34153C12.2957 9.28406 12.2976 9.22347 12.3148 9.16714C12.3321 9.11081 12.3639 9.06115 12.4066 9.0242L14.5326 7.13487L14.0926 6.90887C13.8989 6.83354 13.9521 6.7142 14.0223 6.42754L14.3468 5.13687L13.1118 5.42153C12.9914 5.44153 12.9113 5.3582 12.893 5.2782L12.7335 4.67087L11.7569 5.86687C11.6182 6.05887 11.3371 6.05887 11.4245 5.6162L11.8419 3.19353L11.2815 3.5102C11.1244 3.6062 10.9674 3.6222 10.88 3.45087L10.1069 1.87354L9.33389 3.45087C9.24589 3.6222 9.08883 3.6062 8.93178 3.5102L8.372 3.19353L8.78939 5.6162C8.87739 6.05887 8.59567 6.05887 8.45695 5.86687L7.48039 4.67153L7.3215 5.27887C7.30317 5.35887 7.2225 5.4422 7.10211 5.4222L5.86706 5.13753L6.19156 6.4282C6.26061 6.71487 6.31439 6.8342 6.12067 6.90953L5.68067 7.13553L7.80672 9.02487C7.89106 9.0962 7.93383 9.22487 7.90328 9.3422L7.71689 10.0102L9.83744 9.74287C9.90222 9.74287 9.945 9.7822 9.94439 9.86353L9.81361 12.3329H10.3978L10.2677 9.86353C10.2689 9.78153 10.3111 9.7422 10.3758 9.7422Z" fill="#D52B1E"/>
</g>
</svg>
