<svg width="20" height="20" viewBox="0 0 20 20" fill="none" xmlns="http://www.w3.org/2000/svg">
<path d="M10 0C15.5228 0 20 4.47715 20 10C20 15.5228 15.5228 20 10 20C4.47715 20 0 15.5228 0 10C0 4.47715 4.47715 0 10 0ZM13.8066 10.1377C13.7344 10.3538 13.5325 10.4999 13.3047 10.5H12.1602C11.9371 10.5 11.7381 10.3602 11.6621 10.1504L10.0049 5.57715L8.33789 10.1514C8.26162 10.3606 8.06257 10.5 7.83984 10.5H6.69531C6.46746 10.4999 6.26563 10.3538 6.19336 10.1377L4.27734 4.41016C2.86848 5.85229 2 7.82464 2 10C2 14.156 5.16918 17.571 9.22266 17.9619V16.2725L6.66211 12.2139L6.27441 11.5996H8.13477L8.25195 11.791L10 14.6455L11.748 11.791L11.8652 11.5996H13.7256L13.3379 12.2139L10.7773 16.2725V17.9619C14.8308 17.571 18 14.156 18 10C18 7.82439 17.1308 5.85233 15.7217 4.41016L13.8066 10.1377ZM10 2C8.4581 2 7.01834 2.43663 5.79688 3.19238L7.37207 7.70996L9.53613 3.80469C9.72536 3.46341 10.1974 3.44252 10.4219 3.74121L10.4639 3.80469L12.627 7.70996L14.2021 3.19238C12.9808 2.4369 11.5416 2 10 2Z" fill="#32CEA9"/>
</svg>
