<svg width="469" height="311" viewBox="0 0 469 311" fill="none" xmlns="http://www.w3.org/2000/svg">
<title>FAZE CLAN UP! @razzh.cn</title>
<path d="M0.52344 0.632812C0.167971 0.714844 0.226564 0.92578 0.734377 1.44922C1.24219 1.97656 3.99219 5.05859 5.83203 7.16797C6.41016 7.82422 7.06641 8.56641 7.29297 8.82422C7.52344 9.08203 8.19141 9.875 8.78516 10.582C9.375 11.293 10.1328 12.1758 10.457 12.543C10.7852 12.9102 11.6406 13.918 12.375 14.793C13.1016 15.6602 13.9648 16.6758 14.293 17.043C14.6172 17.4102 15.332 18.25 15.8906 18.918C16.4414 19.582 17.1914 20.457 17.5586 20.875C17.918 21.2852 18.3984 21.8516 18.6172 22.125C18.8398 22.3984 19.3516 23 19.7422 23.4492C21.1914 25.1172 21.7344 25.75 22.75 26.9648C23.3242 27.6406 24.0742 28.5156 24.418 28.9102C25.043 29.6172 28.2578 33.3906 29.1992 34.5352C29.4766 34.8594 30.2266 35.7422 30.875 36.5C31.5156 37.2578 32.457 38.3594 32.957 38.957C33.9102 40.0898 34.2852 40.5352 35.3672 41.7852C36.1992 42.7344 38.8008 45.4844 39.082 45.707C39.1992 45.8008 39.543 46.1328 39.832 46.4492C41.043 47.7266 44.582 50.375 47.168 51.918C49.5 53.3086 53.2734 55.043 55.793 55.8594C57.3164 56.3672 61.4648 57.2852 63.543 57.5742C66.168 57.9492 63.9336 57.9414 127.25 57.9648C167.492 57.9922 187.957 58.0234 188.617 58.082C191.16 58.3008 192.832 58.9492 194.191 60.2422C195.824 61.793 196.766 63.5078 197.227 65.793C197.359 66.4648 197.375 67.0352 197.367 71.668V76.793L197.102 78.125C196.875 79.2852 196.785 79.5742 196.391 80.375C195.484 82.2266 194.09 83.6836 192.449 84.5234C192.059 84.7266 190.324 85.2344 189.734 85.3242C189.398 85.375 167.492 85.4258 131.168 85.457C92.2734 85.5 73.0898 85.5508 73.0234 85.6016C72.7422 85.832 72.957 86.1758 74.4414 87.8594C74.7148 88.168 75.1328 88.6602 75.3672 88.9492C75.6016 89.2422 76.3008 90.0586 76.9258 90.7578C77.543 91.4648 78.375 92.4336 78.7734 92.918C79.1758 93.3984 79.875 94.2266 80.332 94.75C80.793 95.2734 81.3984 95.9844 81.6914 96.3242C81.9766 96.668 82.6016 97.3984 83.0664 97.9492C83.543 98.5078 84.4102 99.5156 84.9844 100.207C85.5664 100.891 86.6094 102.109 87.293 102.918C87.9844 103.715 88.707 104.582 88.918 104.832C89.1172 105.082 89.7422 105.816 90.3008 106.457C90.8516 107.102 91.5664 107.941 91.8828 108.332C92.1992 108.727 92.9102 109.566 93.457 110.199C94.0078 110.84 94.6992 111.648 95 112C95.3008 112.352 95.9336 113.102 96.418 113.668C96.8984 114.234 97.5352 114.977 97.8242 115.324C98.1172 115.676 98.9414 116.641 99.6602 117.484C100.375 118.324 101.426 119.566 102 120.25C102.574 120.926 103.477 121.984 104 122.59C104.535 123.207 105.199 123.992 105.484 124.332C105.766 124.676 106.332 125.34 106.734 125.809C107.133 126.273 108.035 127.352 108.742 128.184C109.449 129.023 110.273 129.992 110.582 130.332C110.883 130.676 111.449 131.332 111.832 131.793C116.367 137.168 120.273 140.59 125.082 143.391C126.66 144.309 127.168 144.566 129.059 145.41C131.535 146.5 134.199 147.418 136.727 148.035C138.535 148.477 139.949 148.691 143.125 149.008C144.258 149.125 155.5 149.199 176.043 149.234C189.875 149.25 189.582 149.242 190.977 149.707C192.082 150.082 193.5 150.883 194.383 151.633C195.641 152.699 196.633 154.59 197.074 156.793C197.465 158.715 197.449 155.492 197.426 235.059C197.418 276.457 197.426 310.41 197.457 310.5C197.551 310.773 197.742 310.691 198.367 310.102C199.668 308.852 201.91 306.867 204.926 304.293C205.391 303.891 205.793 303.543 208.375 301.301C209.016 300.75 209.766 300.082 210.043 299.824C210.316 299.574 210.883 299.082 211.293 298.75C211.707 298.41 212.383 297.832 212.801 297.457C214.191 296.234 214.691 295.801 215.957 294.707C216.648 294.109 217.668 293.234 218.207 292.75C218.75 292.266 219.551 291.574 219.992 291.207C220.441 290.84 221.141 290.242 221.559 289.875C223.074 288.535 224.059 287.676 224.793 287.066C225.207 286.727 225.809 286.207 226.125 285.91C226.449 285.617 227.332 284.852 228.082 284.207C228.832 283.566 229.785 282.742 230.199 282.375C230.617 282.008 231.574 281.184 232.324 280.543C233.082 279.898 234.148 278.984 234.699 278.5C236.434 276.977 237.191 276.316 238.285 275.375C238.867 274.867 239.66 274.184 240.023 273.859C240.398 273.523 241.141 272.891 241.668 272.441C242.191 271.992 243.227 271.102 243.949 270.457C244.676 269.816 245.676 268.957 246.16 268.551C247.051 267.801 248.207 266.793 249.617 265.535C250.035 265.16 250.641 264.633 250.977 264.367C251.301 264.09 252.102 263.41 252.75 262.832C253.391 262.258 254.367 261.418 254.91 260.957C256.176 259.883 257.508 258.727 258.457 257.867C258.875 257.492 259.457 256.984 259.758 256.742C260.066 256.492 260.609 256.023 260.977 255.707C262.367 254.477 264.109 252.965 264.742 252.434C265.102 252.125 265.918 251.426 266.551 250.875C267.176 250.324 268.16 249.484 268.715 249C269.273 248.516 270.117 247.785 270.582 247.375C271.051 246.957 271.891 246.234 272.457 245.75C273.016 245.266 273.977 244.434 274.59 243.898C275.684 242.949 276.176 242.523 278.375 240.633C278.965 240.125 279.684 239.5 279.957 239.242C280.234 238.984 281.023 238.293 281.715 237.699C282.41 237.109 283.492 236.176 284.125 235.625C288.883 231.484 292.074 229.207 296.457 226.859C301.465 224.168 308.074 222.016 313.543 221.293C318.242 220.668 317.176 220.699 337.918 220.633C344.715 220.617 349.051 220.566 349.625 220.516C350.133 220.465 351.227 220.383 352.059 220.332C355.426 220.141 358.234 219.574 362.082 218.316C366.359 216.918 371.309 214.367 374.074 212.125C375.141 211.273 377.125 209.535 378.168 208.551C379.617 207.176 390.832 195.977 390.832 195.898C390.832 195.867 390.867 195.832 390.918 195.832C391.023 195.832 432.699 154.176 432.824 153.926C432.898 153.793 432.91 153.707 432.852 153.648C432.793 153.59 414.75 153.559 376.609 153.559C310.332 153.551 298.168 153.516 295.918 153.309C294.109 153.141 293.234 153 291.891 152.66C289.41 152.043 286.602 150.758 284.125 149.117C282.891 148.309 281.992 147.566 280.793 146.391C280.242 145.859 279.766 145.418 279.734 145.418C279.691 145.418 279.668 145.367 279.668 145.309C279.668 145.25 279.492 145.035 279.285 144.832C278.266 143.832 276.441 141.133 275.492 139.207C274.883 137.977 273.965 135.641 273.625 134.465C273.441 133.809 273.035 131.566 272.852 130.207C272.715 129.207 272.707 127.391 272.707 106.418C272.707 82.4922 272.707 82.2148 273.082 79.2852C273.383 76.918 273.883 75.2344 275.074 72.5508C276.207 70 277.191 68.4766 279.176 66.1992C280.148 65.082 280.324 64.9102 281.602 63.8164C282.977 62.625 283.832 62 284.984 61.3086C288.508 59.1836 292.215 57.9492 296.09 57.5898C296.75 57.5234 309.309 57.4922 336.258 57.4844C380.492 57.457 396.375 57.4102 398.125 57.2656C401.918 56.9492 404.875 56.3828 408.035 55.3594C413.117 53.707 418.273 50.8984 422.082 47.7148C423.824 46.2578 430.043 40.3242 430.418 39.7656C430.484 39.668 430.574 39.582 430.633 39.582C430.734 39.582 431.5 38.7656 431.5 38.6602C431.5 38.625 431.559 38.582 431.625 38.5664C431.758 38.543 445.168 25.1758 445.168 25.0664C445.168 25.0234 445.215 25 445.273 25C445.332 25 447.816 22.5664 450.793 19.582C453.766 16.6094 456.234 14.1602 456.266 14.1484C456.301 14.1328 458.852 11.6094 461.934 8.53516C465.016 5.46484 467.832 2.71484 468.184 2.43359C468.785 1.94922 469.008 1.64844 468.875 1.51562C468.75 1.39062 464.609 1.35937 443.25 1.33984C430.941 1.33203 419.793 1.30859 418.457 1.29297C417.133 1.26562 402.133 1.23437 385.125 1.20703C318.148 1.11719 297.508 1.08203 290.668 1.04297C286.75 1.01562 268.41 0.984375 249.918 0.957031C231.426 0.933594 195.633 0.875 170.375 0.832031C145.125 0.792969 107.773 0.734375 87.375 0.707031C66.9844 0.683594 39.1328 0.648438 25.5 0.632812C11.8672 0.609375 0.625002 0.609375 0.52344 0.632812Z" fill="white"/>
</svg>
