<svg xmlns="http://www.w3.org/2000/svg" xmlns:xlink="http://www.w3.org/1999/xlink" width="500px" height="500px" viewBox="0 0 500 500" version="1.1" fill="none">
<title>FAZE CLAN UP! @razzh.cn</title>
<path style=" stroke:none;fill-rule:nonzero;fill:rgb(0%,0%,0%);fill-opacity:1;" d="M 13.523438 109.632812 C 13.167969 109.714844 13.226562 109.925781 13.734375 110.449219 C 14.242188 110.976562 16.992188 114.058594 18.832031 116.167969 C 19.410156 116.824219 20.066406 117.566406 20.292969 117.824219 C 20.523438 118.082031 21.191406 118.875 21.785156 119.582031 C 22.375 120.292969 23.132812 121.175781 23.457031 121.542969 C 23.785156 121.910156 24.640625 122.917969 25.375 123.792969 C 26.101562 124.660156 26.964844 125.675781 27.292969 126.042969 C 27.617188 126.410156 28.332031 127.25 28.890625 127.917969 C 29.441406 128.582031 30.191406 129.457031 30.558594 129.875 C 30.917969 130.285156 31.398438 130.851562 31.617188 131.125 C 31.839844 131.398438 32.351562 132 32.742188 132.449219 C 34.191406 134.117188 34.734375 134.75 35.75 135.964844 C 36.324219 136.640625 37.074219 137.515625 37.417969 137.910156 C 38.042969 138.617188 41.257812 142.390625 42.199219 143.535156 C 42.476562 143.859375 43.226562 144.742188 43.875 145.5 C 44.515625 146.257812 45.457031 147.359375 45.957031 147.957031 C 46.910156 149.089844 47.285156 149.535156 48.367188 150.785156 C 49.199219 151.734375 51.800781 154.484375 52.082031 154.707031 C 52.199219 154.800781 52.542969 155.132812 52.832031 155.449219 C 54.042969 156.726562 57.582031 159.375 60.167969 160.917969 C 62.5 162.308594 66.273438 164.042969 68.792969 164.859375 C 70.316406 165.367188 74.464844 166.285156 76.542969 166.574219 C 79.167969 166.949219 76.933594 166.941406 140.25 166.964844 C 180.492188 166.992188 200.957031 167.023438 201.617188 167.082031 C 204.160156 167.300781 205.832031 167.949219 207.191406 169.242188 C 208.824219 170.792969 209.765625 172.507812 210.226562 174.792969 C 210.359375 175.464844 210.375 176.035156 210.367188 180.667969 L 210.367188 185.792969 L 210.101562 187.125 C 209.875 188.285156 209.785156 188.574219 209.390625 189.375 C 208.484375 191.226562 207.089844 192.683594 205.449219 193.523438 C 205.058594 193.726562 203.324219 194.234375 202.734375 194.324219 C 202.398438 194.375 180.492188 194.425781 144.167969 194.457031 C 105.273438 194.5 86.089844 194.550781 86.023438 194.601562 C 85.742188 194.832031 85.957031 195.175781 87.441406 196.859375 C 87.714844 197.167969 88.132812 197.660156 88.367188 197.949219 C 88.601562 198.242188 89.300781 199.058594 89.925781 199.757812 C 90.542969 200.464844 91.375 201.433594 91.773438 201.917969 C 92.175781 202.398438 92.875 203.226562 93.332031 203.75 C 93.792969 204.273438 94.398438 204.984375 94.691406 205.324219 C 94.976562 205.667969 95.601562 206.398438 96.066406 206.949219 C 96.542969 207.507812 97.410156 208.515625 97.984375 209.207031 C 98.566406 209.890625 99.609375 211.109375 100.292969 211.917969 C 100.984375 212.714844 101.707031 213.582031 101.917969 213.832031 C 102.117188 214.082031 102.742188 214.816406 103.300781 215.457031 C 103.851562 216.101562 104.566406 216.941406 104.882812 217.332031 C 105.199219 217.726562 105.910156 218.566406 106.457031 219.199219 C 107.007812 219.839844 107.699219 220.648438 108 221 C 108.300781 221.351562 108.933594 222.101562 109.417969 222.667969 C 109.898438 223.234375 110.535156 223.976562 110.824219 224.324219 C 111.117188 224.675781 111.941406 225.640625 112.660156 226.484375 C 113.375 227.324219 114.425781 228.566406 115 229.25 C 115.574219 229.925781 116.476562 230.984375 117 231.589844 C 117.535156 232.207031 118.199219 232.992188 118.484375 233.332031 C 118.765625 233.675781 119.332031 234.339844 119.734375 234.808594 C 120.132812 235.273438 121.035156 236.351562 121.742188 237.183594 C 122.449219 238.023438 123.273438 238.992188 123.582031 239.332031 C 123.882812 239.675781 124.449219 240.332031 124.832031 240.792969 C 129.367188 246.167969 133.273438 249.589844 138.082031 252.390625 C 139.660156 253.308594 140.167969 253.566406 142.058594 254.410156 C 144.535156 255.5 147.199219 256.417969 149.726562 257.035156 C 151.535156 257.476562 152.949219 257.691406 156.125 258.007812 C 157.257812 258.125 168.5 258.199219 189.042969 258.234375 C 202.875 258.25 202.582031 258.242188 203.976562 258.707031 C 205.082031 259.082031 206.5 259.882812 207.382812 260.632812 C 208.640625 261.699219 209.632812 263.589844 210.074219 265.792969 C 210.464844 267.714844 210.449219 264.492188 210.425781 344.058594 C 210.417969 385.457031 210.425781 419.410156 210.457031 419.5 C 210.550781 419.773438 210.742188 419.691406 211.367188 419.101562 C 212.667969 417.851562 214.910156 415.867188 217.925781 413.292969 C 218.390625 412.890625 218.792969 412.542969 221.375 410.300781 C 222.015625 409.75 222.765625 409.082031 223.042969 408.824219 C 223.316406 408.574219 223.882812 408.082031 224.292969 407.75 C 224.707031 407.410156 225.382812 406.832031 225.800781 406.457031 C 227.191406 405.234375 227.691406 404.800781 228.957031 403.707031 C 229.648438 403.109375 230.667969 402.234375 231.207031 401.75 C 231.75 401.265625 232.550781 400.574219 232.992188 400.207031 C 233.441406 399.839844 234.140625 399.242188 234.558594 398.875 C 236.074219 397.535156 237.058594 396.675781 237.792969 396.066406 C 238.207031 395.726562 238.808594 395.207031 239.125 394.910156 C 239.449219 394.617188 240.332031 393.851562 241.082031 393.207031 C 241.832031 392.566406 242.785156 391.742188 243.199219 391.375 C 243.617188 391.007812 244.574219 390.183594 245.324219 389.542969 C 246.082031 388.898438 247.148438 387.984375 247.699219 387.5 C 249.433594 385.976562 250.191406 385.316406 251.285156 384.375 C 251.867188 383.867188 252.660156 383.183594 253.023438 382.859375 C 253.398438 382.523438 254.140625 381.890625 254.667969 381.441406 C 255.191406 380.992188 256.226562 380.101562 256.949219 379.457031 C 257.675781 378.816406 258.675781 377.957031 259.160156 377.550781 C 260.050781 376.800781 261.207031 375.792969 262.617188 374.535156 C 263.035156 374.160156 263.640625 373.632812 263.976562 373.367188 C 264.300781 373.089844 265.101562 372.410156 265.75 371.832031 C 266.390625 371.257812 267.367188 370.417969 267.910156 369.957031 C 269.175781 368.882812 270.507812 367.726562 271.457031 366.867188 C 271.875 366.492188 272.457031 365.984375 272.757812 365.742188 C 273.066406 365.492188 273.609375 365.023438 273.976562 364.707031 C 275.367188 363.476562 277.109375 361.964844 277.742188 361.433594 C 278.101562 361.125 278.917969 360.425781 279.550781 359.875 C 280.175781 359.324219 281.160156 358.484375 281.714844 358 C 282.273438 357.515625 283.117188 356.785156 283.582031 356.375 C 284.050781 355.957031 284.890625 355.234375 285.457031 354.75 C 286.015625 354.265625 286.976562 353.433594 287.589844 352.898438 C 288.683594 351.949219 289.175781 351.523438 291.375 349.632812 C 291.964844 349.125 292.683594 348.5 292.957031 348.242188 C 293.234375 347.984375 294.023438 347.292969 294.714844 346.699219 C 295.410156 346.109375 296.492188 345.175781 297.125 344.625 C 301.882812 340.484375 305.074219 338.207031 309.457031 335.859375 C 314.464844 333.167969 321.074219 331.015625 326.542969 330.292969 C 331.242188 329.667969 330.175781 329.699219 350.917969 329.632812 C 357.714844 329.617188 362.050781 329.566406 362.625 329.515625 C 363.132812 329.464844 364.226562 329.382812 365.058594 329.332031 C 368.425781 329.140625 371.234375 328.574219 375.082031 327.316406 C 379.359375 325.917969 384.308594 323.367188 387.074219 321.125 C 388.140625 320.273438 390.125 318.535156 391.167969 317.550781 C 392.617188 316.175781 403.832031 304.976562 403.832031 304.898438 C 403.832031 304.867188 403.867188 304.832031 403.917969 304.832031 C 404.023438 304.832031 445.699219 263.175781 445.824219 262.925781 C 445.898438 262.792969 445.910156 262.707031 445.851562 262.648438 C 445.792969 262.589844 427.75 262.558594 389.609375 262.558594 C 323.332031 262.550781 311.167969 262.515625 308.917969 262.308594 C 307.109375 262.140625 306.234375 262 304.890625 261.660156 C 302.410156 261.042969 299.601562 259.757812 297.125 258.117188 C 295.890625 257.308594 294.992188 256.566406 293.792969 255.390625 C 293.242188 254.859375 292.765625 254.417969 292.734375 254.417969 C 292.691406 254.417969 292.667969 254.367188 292.667969 254.308594 C 292.667969 254.25 292.492188 254.035156 292.285156 253.832031 C 291.265625 252.832031 289.441406 250.132812 288.492188 248.207031 C 287.882812 246.976562 286.964844 244.640625 286.625 243.464844 C 286.441406 242.808594 286.035156 240.566406 285.851562 239.207031 C 285.714844 238.207031 285.707031 236.390625 285.707031 215.417969 C 285.707031 191.492188 285.707031 191.214844 286.082031 188.285156 C 286.382812 185.917969 286.882812 184.234375 288.074219 181.550781 C 289.207031 179 290.191406 177.476562 292.175781 175.199219 C 293.148438 174.082031 293.324219 173.910156 294.601562 172.816406 C 295.976562 171.625 296.832031 171 297.984375 170.308594 C 301.507812 168.183594 305.214844 166.949219 309.089844 166.589844 C 309.75 166.523438 322.308594 166.492188 349.257812 166.484375 C 393.492188 166.457031 409.375 166.410156 411.125 166.265625 C 414.917969 165.949219 417.875 165.382812 421.035156 164.359375 C 426.117188 162.707031 431.273438 159.898438 435.082031 156.714844 C 436.824219 155.257812 443.042969 149.324219 443.417969 148.765625 C 443.484375 148.667969 443.574219 148.582031 443.632812 148.582031 C 443.734375 148.582031 444.5 147.765625 444.5 147.660156 C 444.5 147.625 444.558594 147.582031 444.625 147.566406 C 444.757812 147.542969 458.167969 134.175781 458.167969 134.066406 C 458.167969 134.023438 458.214844 134 458.273438 134 C 458.332031 134 460.816406 131.566406 463.792969 128.582031 C 466.765625 125.609375 469.234375 123.160156 469.265625 123.148438 C 469.300781 123.132812 471.851562 120.609375 474.933594 117.535156 C 478.015625 114.464844 480.832031 111.714844 481.183594 111.433594 C 481.785156 110.949219 482.007812 110.648438 481.875 110.515625 C 481.75 110.390625 477.609375 110.359375 456.25 110.339844 C 443.941406 110.332031 432.792969 110.308594 431.457031 110.292969 C 430.132812 110.265625 415.132812 110.234375 398.125 110.207031 C 331.148438 110.117188 310.507812 110.082031 303.667969 110.042969 C 299.75 110.015625 281.410156 109.984375 262.917969 109.957031 C 244.425781 109.933594 208.632812 109.875 183.375 109.832031 C 158.125 109.792969 120.773438 109.734375 100.375 109.707031 C 79.984375 109.683594 52.132812 109.648438 38.5 109.632812 C 24.867188 109.609375 13.625 109.609375 13.523438 109.632812 Z M 13.523438 109.632812 "/>
</svg>
