<svg width="210" height="78" viewBox="0 0 210 78" fill="none" xmlns="http://www.w3.org/2000/svg">
<path d="M74.48 58.16C75.1733 58.16 75.7067 58.48 76.08 59.12C76.5067 59.76 76.72 60.64 76.72 61.76C76.72 63.84 76.2133 65.4933 75.2 66.72C72.64 69.8133 70.0533 72.2133 67.44 73.92C64.8267 75.5733 61.7333 76.4 58.16 76.4C54.6933 76.4 51.7333 75.4667 49.28 73.6C46.88 71.7333 44.5867 68.5333 42.4 64C40.64 60.3733 39.2533 57.7067 38.24 56C37.2267 54.24 36.2133 52.9867 35.2 52.24C34.24 51.4933 33.04 51.04 31.6 50.88C31.3867 52 30.7733 55.52 29.76 61.44C29.3333 64.1067 29.0667 65.7333 28.96 66.32C28.4267 69.5733 27.36 72.08 25.76 73.84C24.16 75.5467 21.7333 76.4 18.48 76.4C14.9067 76.4 11.7333 75.36 8.96 73.28C6.24 71.1467 4.13333 68.2133 2.64 64.48C1.14667 60.6933 0.4 56.4 0.4 51.6C0.4 42.64 1.94667 34.9067 5.04 28.4C8.18667 21.8933 12.56 16.9333 18.16 13.52C23.8133 10.0533 30.32 8.32 37.68 8.32C42.8 8.32 47.0933 9.09333 50.56 10.64C54.0267 12.1867 56.5867 14.32 58.24 17.04C59.9467 19.76 60.8 22.8267 60.8 26.24C60.8 29.2267 60.08 32.16 58.64 35.04C57.2533 37.8667 55.1467 40.3733 52.32 42.56C49.4933 44.7467 46.0533 46.3733 42 47.44C44.56 48.1333 46.5333 49.2533 47.92 50.8C49.3067 52.3467 50.6933 54.6133 52.08 57.6C53.5733 60.8 55.04 63.1467 56.48 64.64C57.9733 66.1333 59.68 66.88 61.6 66.88C63.3067 66.88 64.9333 66.32 66.48 65.2C68.0267 64.0267 69.9733 62.0533 72.32 59.28C72.96 58.5333 73.68 58.16 74.48 58.16ZM20.56 50.8C18.7467 50.8 17.4933 50.3733 16.8 49.52C16.16 48.6667 15.84 47.7067 15.84 46.64C15.84 45.36 16.24 44.3467 17.04 43.6C17.8933 42.8533 18.8533 42.48 19.92 42.48H21.92C22.7733 37.2533 23.5733 32.7467 24.32 28.96C25.0133 25.4933 27.2533 23.76 31.04 23.76C34.08 23.76 35.6 25.12 35.6 27.84C35.6 28.4267 35.5733 28.88 35.52 29.2L33.12 42.48C36 42.32 38.6133 41.6267 40.96 40.4C43.36 39.1733 45.2533 37.4667 46.64 35.28C48.08 33.0933 48.8 30.6133 48.8 27.84C48.8 24.48 47.6533 21.84 45.36 19.92C43.0667 18 39.7067 17.04 35.28 17.04C30.0533 17.04 25.4667 18.3467 21.52 20.96C17.6267 23.52 14.5867 27.36 12.4 32.48C10.2133 37.5467 9.12 43.7333 9.12 51.04C9.12 54.4533 9.46667 57.3867 10.16 59.84C10.8533 62.2933 11.7067 64.1333 12.72 65.36C13.7333 66.5867 14.6933 67.2 15.6 67.2C16.2933 67.2 16.8533 66.8533 17.28 66.16C17.76 65.4667 18.1333 64.3467 18.4 62.8L20.56 50.8ZM78.5081 76.4C75.2015 76.4 72.5615 75.2 70.5881 72.8C68.6148 70.4 67.6281 67.2533 67.6281 63.36C67.6281 59.0933 68.6148 55.0667 70.5881 51.28C72.5615 47.44 75.1748 44.3733 78.4281 42.08C81.7348 39.7333 85.2281 38.56 88.9081 38.56C90.0815 38.56 90.8548 38.8 91.2281 39.28C91.6548 39.7067 92.0015 40.5067 92.2681 41.68C93.3881 41.4667 94.5615 41.36 95.7881 41.36C98.4015 41.36 99.7081 42.2933 99.7081 44.16C99.7081 45.28 99.3081 47.9467 98.5081 52.16C97.2815 58.2933 96.6681 62.56 96.6681 64.96C96.6681 65.76 96.8548 66.4 97.2281 66.88C97.6548 67.36 98.1881 67.6 98.8281 67.6C99.8415 67.6 101.068 66.96 102.508 65.68C103.948 64.3467 105.895 62.2133 108.348 59.28C108.988 58.5333 109.708 58.16 110.508 58.16C111.201 58.16 111.735 58.48 112.108 59.12C112.535 59.76 112.748 60.64 112.748 61.76C112.748 63.8933 112.241 65.5467 111.228 66.72C109.041 69.44 106.721 71.7333 104.268 73.6C101.815 75.4667 99.4415 76.4 97.1481 76.4C95.3881 76.4 93.7615 75.8133 92.2681 74.64C90.8281 73.4133 89.7348 71.76 88.9881 69.68C86.2148 74.16 82.7215 76.4 78.5081 76.4ZM81.3881 68.32C82.5615 68.32 83.6815 67.6267 84.7481 66.24C85.8148 64.8533 86.5881 63.0133 87.0681 60.72L90.0281 46C87.7881 46.0533 85.7081 46.9067 83.7881 48.56C81.9215 50.16 80.4281 52.2933 79.3081 54.96C78.1881 57.6267 77.6281 60.4533 77.6281 63.44C77.6281 65.0933 77.9481 66.32 78.5881 67.12C79.2815 67.92 80.2148 68.32 81.3881 68.32ZM144.604 58.16C145.297 58.16 145.83 58.48 146.204 59.12C146.63 59.76 146.844 60.64 146.844 61.76C146.844 63.7333 146.337 65.3867 145.324 66.72C142.817 69.9733 139.697 72.5333 135.964 74.4C132.284 76.2667 128.124 77.2 123.484 77.2C119.857 77.2 116.71 76.6667 114.044 75.6C111.377 74.48 109.324 72.9867 107.884 71.12C106.497 69.2 105.804 67.0667 105.804 64.72C105.804 61.2 107.217 58.08 110.044 55.36C112.87 52.64 116.924 50.0267 122.204 47.52L109.084 47.84C107.91 47.8933 107.004 47.4933 106.364 46.64C105.777 45.7333 105.484 44.6667 105.484 43.44C105.484 42.16 105.777 41.04 106.364 40.08C107.004 39.0667 107.857 38.56 108.924 38.56C111.377 38.56 114.657 38.7467 118.764 39.12C119.617 39.1733 121.164 39.28 123.404 39.44C125.697 39.6 127.617 39.68 129.164 39.68C129.697 39.68 130.71 39.4667 132.204 39.04C132.47 38.9867 132.977 38.8533 133.724 38.64C134.524 38.4267 135.19 38.32 135.724 38.32C136.577 38.32 137.27 38.6933 137.804 39.44C138.39 40.1867 138.684 41.3333 138.684 42.88C138.684 44.5867 138.284 45.92 137.484 46.88C136.684 47.84 135.43 48.6933 133.724 49.44C128.87 51.52 124.844 53.76 121.644 56.16C118.444 58.5067 116.844 60.8533 116.844 63.2C116.844 64.6933 117.537 65.92 118.924 66.88C120.31 67.84 122.364 68.32 125.084 68.32C128.07 68.32 131.084 67.5733 134.124 66.08C137.217 64.5867 139.99 62.32 142.444 59.28C143.084 58.5333 143.804 58.16 144.604 58.16ZM180.229 58.16C180.922 58.16 181.455 58.48 181.829 59.12C182.255 59.76 182.469 60.64 182.469 61.76C182.469 63.7333 181.962 65.3867 180.949 66.72C178.442 69.9733 175.322 72.5333 171.589 74.4C167.909 76.2667 163.749 77.2 159.109 77.2C155.482 77.2 152.335 76.6667 149.669 75.6C147.002 74.48 144.949 72.9867 143.509 71.12C142.122 69.2 141.429 67.0667 141.429 64.72C141.429 61.2 142.842 58.08 145.669 55.36C148.495 52.64 152.549 50.0267 157.829 47.52L144.709 47.84C143.535 47.8933 142.629 47.4933 141.989 46.64C141.402 45.7333 141.109 44.6667 141.109 43.44C141.109 42.16 141.402 41.04 141.989 40.08C142.629 39.0667 143.482 38.56 144.549 38.56C147.002 38.56 150.282 38.7467 154.389 39.12C155.242 39.1733 156.789 39.28 159.029 39.44C161.322 39.6 163.242 39.68 164.789 39.68C165.322 39.68 166.335 39.4667 167.829 39.04C168.095 38.9867 168.602 38.8533 169.349 38.64C170.149 38.4267 170.815 38.32 171.349 38.32C172.202 38.32 172.895 38.6933 173.429 39.44C174.015 40.1867 174.309 41.3333 174.309 42.88C174.309 44.5867 173.909 45.92 173.109 46.88C172.309 47.84 171.055 48.6933 169.349 49.44C164.495 51.52 160.469 53.76 157.269 56.16C154.069 58.5067 152.469 60.8533 152.469 63.2C152.469 64.6933 153.162 65.92 154.549 66.88C155.935 67.84 157.989 68.32 160.709 68.32C163.695 68.32 166.709 67.5733 169.749 66.08C172.842 64.5867 175.615 62.32 178.069 59.28C178.709 58.5333 179.429 58.16 180.229 58.16ZM204.254 38.72C205.96 38.72 207.24 39.1733 208.094 40.08C209 40.9333 209.454 42.2133 209.454 43.92C209.454 45.3067 209.16 47.92 208.574 51.76C208.04 55.0133 207.614 58.1067 207.294 61.04C206.974 63.92 206.814 67.1467 206.814 70.72C206.814 72.7467 206.387 74.2133 205.534 75.12C204.734 75.9733 203.4 76.4 201.534 76.4C199.774 76.4 198.494 75.9467 197.694 75.04C196.894 74.1333 196.494 72.7733 196.494 70.96C196.494 68.8267 196.867 65.3067 197.614 60.4C198.254 56.1333 198.574 53.4133 198.574 52.24C198.574 51.3867 198.28 50.96 197.694 50.96C197 50.96 196.014 51.8667 194.734 53.68C193.454 55.44 192.174 57.7867 190.894 60.72C189.614 63.6533 188.574 66.7467 187.774 70C187.187 72.5067 186.494 74.2133 185.694 75.12C184.947 75.9733 183.747 76.4 182.094 76.4C180.44 76.4 179.214 75.8133 178.414 74.64C177.667 73.4133 177.16 71.5467 176.894 69.04C176.627 66.5333 176.494 62.8533 176.494 58C176.494 49.7867 177.32 41.2267 178.974 32.32C180.68 23.4133 183.16 15.9467 186.414 9.92C189.72 3.84 193.667 0.799995 198.254 0.799995C200.707 0.799995 202.68 1.86666 204.174 4C205.72 6.08 206.494 8.8 206.494 12.16C206.494 17.5467 204.92 23.1467 201.774 28.96C198.627 34.72 193.507 41.4667 186.414 49.2C186.254 51.9733 186.174 54.8267 186.174 57.76C187.934 53.2267 189.88 49.5467 192.014 46.72C194.2 43.84 196.334 41.7867 198.414 40.56C200.547 39.3333 202.494 38.72 204.254 38.72ZM196.574 8.72C195.614 8.72 194.547 10.1067 193.374 12.88C192.2 15.6 191.054 19.3067 189.934 24C188.867 28.64 187.987 33.7067 187.294 39.2C190.6 35.3067 193.32 31.0667 195.454 26.48C197.64 21.8933 198.734 17.7333 198.734 14C198.734 12.2933 198.547 10.9867 198.174 10.08C197.8 9.17333 197.267 8.72 196.574 8.72Z" fill="white"/>
</svg>
