<svg width="127" height="47" viewBox="0 0 127 47" fill="none" xmlns="http://www.w3.org/2000/svg">
<path d="M45.088 35.296C45.504 35.296 45.824 35.488 46.048 35.872C46.304 36.256 46.432 36.784 46.432 37.456C46.432 38.704 46.128 39.696 45.52 40.432C43.984 42.288 42.432 43.728 40.864 44.752C39.296 45.744 37.44 46.24 35.296 46.24C33.216 46.24 31.44 45.68 29.968 44.56C28.528 43.44 27.152 41.52 25.84 38.8C24.784 36.624 23.952 35.024 23.344 34C22.736 32.944 22.128 32.192 21.52 31.744C20.944 31.296 20.224 31.024 19.36 30.928C19.232 31.6 18.864 33.712 18.256 37.264C18 38.864 17.84 39.84 17.776 40.192C17.456 42.144 16.816 43.648 15.856 44.704C14.896 45.728 13.44 46.24 11.488 46.24C9.344 46.24 7.44 45.616 5.776 44.368C4.144 43.088 2.88 41.328 1.984 39.088C1.088 36.816 0.64 34.24 0.64 31.36C0.64 25.984 1.568 21.344 3.424 17.44C5.312 13.536 7.936 10.56 11.296 8.512C14.688 6.432 18.592 5.392 23.008 5.392C26.08 5.392 28.656 5.856 30.736 6.784C32.816 7.712 34.352 8.992 35.344 10.624C36.368 12.256 36.88 14.096 36.88 16.144C36.88 17.936 36.448 19.696 35.584 21.424C34.752 23.12 33.488 24.624 31.792 25.936C30.096 27.248 28.032 28.224 25.6 28.864C27.136 29.28 28.32 29.952 29.152 30.88C29.984 31.808 30.816 33.168 31.648 34.96C32.544 36.88 33.424 38.288 34.288 39.184C35.184 40.08 36.208 40.528 37.36 40.528C38.384 40.528 39.36 40.192 40.288 39.52C41.216 38.816 42.384 37.632 43.792 35.968C44.176 35.52 44.608 35.296 45.088 35.296ZM12.736 30.88C11.648 30.88 10.896 30.624 10.48 30.112C10.096 29.6 9.904 29.024 9.904 28.384C9.904 27.616 10.144 27.008 10.624 26.56C11.136 26.112 11.712 25.888 12.352 25.888H13.552C14.064 22.752 14.544 20.048 14.992 17.776C15.408 15.696 16.752 14.656 19.024 14.656C20.848 14.656 21.76 15.472 21.76 17.104C21.76 17.456 21.744 17.728 21.712 17.92L20.272 25.888C22 25.792 23.568 25.376 24.976 24.64C26.416 23.904 27.552 22.88 28.384 21.568C29.248 20.256 29.68 18.768 29.68 17.104C29.68 15.088 28.992 13.504 27.616 12.352C26.24 11.2 24.224 10.624 21.568 10.624C18.432 10.624 15.68 11.408 13.312 12.976C10.976 14.512 9.152 16.816 7.84 19.888C6.528 22.928 5.872 26.64 5.872 31.024C5.872 33.072 6.08 34.832 6.496 36.304C6.912 37.776 7.424 38.88 8.032 39.616C8.64 40.352 9.216 40.72 9.76 40.72C10.176 40.72 10.512 40.512 10.768 40.096C11.056 39.68 11.28 39.008 11.44 38.08L12.736 30.88ZM47.5049 46.24C45.5209 46.24 43.9369 45.52 42.7529 44.08C41.5689 42.64 40.9769 40.752 40.9769 38.416C40.9769 35.856 41.5689 33.44 42.7529 31.168C43.9369 28.864 45.5049 27.024 47.4569 25.648C49.4409 24.24 51.5369 23.536 53.7449 23.536C54.4489 23.536 54.9129 23.68 55.1369 23.968C55.3929 24.224 55.6009 24.704 55.7609 25.408C56.4329 25.28 57.1369 25.216 57.8729 25.216C59.4409 25.216 60.2249 25.776 60.2249 26.896C60.2249 27.568 59.9849 29.168 59.5049 31.696C58.7689 35.376 58.4009 37.936 58.4009 39.376C58.4009 39.856 58.5129 40.24 58.7369 40.528C58.9929 40.816 59.3129 40.96 59.6969 40.96C60.3049 40.96 61.0409 40.576 61.9049 39.808C62.7689 39.008 63.9369 37.728 65.4089 35.968C65.7929 35.52 66.2249 35.296 66.7049 35.296C67.1209 35.296 67.4409 35.488 67.6649 35.872C67.9209 36.256 68.0489 36.784 68.0489 37.456C68.0489 38.736 67.7449 39.728 67.1369 40.432C65.8249 42.064 64.4329 43.44 62.9609 44.56C61.4889 45.68 60.0649 46.24 58.6889 46.24C57.6329 46.24 56.6569 45.888 55.7609 45.184C54.8969 44.448 54.2409 43.456 53.7929 42.208C52.1289 44.896 50.0329 46.24 47.5049 46.24ZM49.2329 41.392C49.9369 41.392 50.6089 40.976 51.2489 40.144C51.8889 39.312 52.3529 38.208 52.6409 36.832L54.4169 28C53.0729 28.032 51.8249 28.544 50.6729 29.536C49.5529 30.496 48.6569 31.776 47.9849 33.376C47.3129 34.976 46.9769 36.672 46.9769 38.464C46.9769 39.456 47.1689 40.192 47.5529 40.672C47.9689 41.152 48.5289 41.392 49.2329 41.392ZM87.1623 35.296C87.5783 35.296 87.8983 35.488 88.1223 35.872C88.3783 36.256 88.5063 36.784 88.5063 37.456C88.5063 38.64 88.2023 39.632 87.5943 40.432C86.0903 42.384 84.2183 43.92 81.9783 45.04C79.7703 46.16 77.2743 46.72 74.4903 46.72C72.3143 46.72 70.4263 46.4 68.8263 45.76C67.2263 45.088 65.9943 44.192 65.1303 43.072C64.2983 41.92 63.8823 40.64 63.8823 39.232C63.8823 37.12 64.7303 35.248 66.4263 33.616C68.1223 31.984 70.5543 30.416 73.7223 28.912L65.8503 29.104C65.1463 29.136 64.6023 28.896 64.2183 28.384C63.8663 27.84 63.6903 27.2 63.6903 26.464C63.6903 25.696 63.8663 25.024 64.2183 24.448C64.6023 23.84 65.1143 23.536 65.7543 23.536C67.2263 23.536 69.1943 23.648 71.6583 23.872C72.1703 23.904 73.0983 23.968 74.4423 24.064C75.8183 24.16 76.9703 24.208 77.8983 24.208C78.2183 24.208 78.8263 24.08 79.7223 23.824C79.8823 23.792 80.1863 23.712 80.6343 23.584C81.1143 23.456 81.5143 23.392 81.8343 23.392C82.3463 23.392 82.7623 23.616 83.0823 24.064C83.4343 24.512 83.6103 25.2 83.6103 26.128C83.6103 27.152 83.3703 27.952 82.8903 28.528C82.4103 29.104 81.6583 29.616 80.6343 30.064C77.7223 31.312 75.3063 32.656 73.3863 34.096C71.4663 35.504 70.5063 36.912 70.5063 38.32C70.5063 39.216 70.9223 39.952 71.7543 40.528C72.5863 41.104 73.8183 41.392 75.4503 41.392C77.2423 41.392 79.0503 40.944 80.8743 40.048C82.7303 39.152 84.3943 37.792 85.8663 35.968C86.2503 35.52 86.6823 35.296 87.1623 35.296ZM108.537 35.296C108.953 35.296 109.273 35.488 109.497 35.872C109.753 36.256 109.881 36.784 109.881 37.456C109.881 38.64 109.577 39.632 108.969 40.432C107.465 42.384 105.593 43.92 103.353 45.04C101.145 46.16 98.6493 46.72 95.8653 46.72C93.6893 46.72 91.8013 46.4 90.2013 45.76C88.6013 45.088 87.3693 44.192 86.5053 43.072C85.6733 41.92 85.2573 40.64 85.2573 39.232C85.2573 37.12 86.1053 35.248 87.8013 33.616C89.4973 31.984 91.9293 30.416 95.0973 28.912L87.2253 29.104C86.5213 29.136 85.9773 28.896 85.5933 28.384C85.2413 27.84 85.0653 27.2 85.0653 26.464C85.0653 25.696 85.2413 25.024 85.5933 24.448C85.9773 23.84 86.4893 23.536 87.1293 23.536C88.6013 23.536 90.5693 23.648 93.0333 23.872C93.5453 23.904 94.4733 23.968 95.8173 24.064C97.1933 24.16 98.3453 24.208 99.2733 24.208C99.5933 24.208 100.201 24.08 101.097 23.824C101.257 23.792 101.561 23.712 102.009 23.584C102.489 23.456 102.889 23.392 103.209 23.392C103.721 23.392 104.137 23.616 104.457 24.064C104.809 24.512 104.985 25.2 104.985 26.128C104.985 27.152 104.745 27.952 104.265 28.528C103.785 29.104 103.033 29.616 102.009 30.064C99.0973 31.312 96.6813 32.656 94.7613 34.096C92.8413 35.504 91.8813 36.912 91.8813 38.32C91.8813 39.216 92.2973 39.952 93.1293 40.528C93.9613 41.104 95.1933 41.392 96.8253 41.392C98.6173 41.392 100.425 40.944 102.249 40.048C104.105 39.152 105.769 37.792 107.241 35.968C107.625 35.52 108.057 35.296 108.537 35.296ZM122.952 23.632C123.976 23.632 124.744 23.904 125.256 24.448C125.8 24.96 126.072 25.728 126.072 26.752C126.072 27.584 125.896 29.152 125.544 31.456C125.224 33.408 124.968 35.264 124.776 37.024C124.584 38.752 124.488 40.688 124.488 42.832C124.488 44.048 124.232 44.928 123.72 45.472C123.24 45.984 122.44 46.24 121.32 46.24C120.264 46.24 119.496 45.968 119.016 45.424C118.536 44.88 118.296 44.064 118.296 42.976C118.296 41.696 118.52 39.584 118.968 36.64C119.352 34.08 119.544 32.448 119.544 31.744C119.544 31.232 119.368 30.976 119.016 30.976C118.6 30.976 118.008 31.52 117.24 32.608C116.472 33.664 115.704 35.072 114.936 36.832C114.168 38.592 113.544 40.448 113.064 42.4C112.712 43.904 112.296 44.928 111.816 45.472C111.368 45.984 110.648 46.24 109.656 46.24C108.664 46.24 107.928 45.888 107.448 45.184C107 44.448 106.696 43.328 106.536 41.824C106.376 40.32 106.296 38.112 106.296 35.2C106.296 30.272 106.792 25.136 107.784 19.792C108.808 14.448 110.296 9.968 112.248 6.352C114.232 2.704 116.6 0.879997 119.352 0.879997C120.824 0.879997 122.008 1.52 122.904 2.8C123.832 4.048 124.296 5.68 124.296 7.696C124.296 10.928 123.352 14.288 121.464 17.776C119.576 21.232 116.504 25.28 112.248 29.92C112.152 31.584 112.104 33.296 112.104 35.056C113.16 32.336 114.328 30.128 115.608 28.432C116.92 26.704 118.2 25.472 119.448 24.736C120.728 24 121.896 23.632 122.952 23.632ZM118.344 5.632C117.768 5.632 117.128 6.464 116.424 8.128C115.72 9.76 115.032 11.984 114.36 14.8C113.72 17.584 113.192 20.624 112.776 23.92C114.76 21.584 116.392 19.04 117.672 16.288C118.984 13.536 119.64 11.04 119.64 8.8C119.64 7.776 119.528 6.992 119.304 6.448C119.08 5.904 118.76 5.632 118.344 5.632Z" fill="#fff"/>
</svg>
